<?xml version="1.0" encoding="UTF-8" standalone="no"?><svg xmlns="http://www.w3.org/2000/svg" xmlns:xlink="http://www.w3.org/1999/xlink" contentScriptType="application/ecmascript" contentStyleType="text/css" height="1025px" preserveAspectRatio="none" style="width:1679px;height:1025px;" version="1.1" viewBox="0 0 1679 1025" width="1679px" zoomAndPan="magnify"><defs><filter height="300%" id="feton189k9zvp" width="300%" x="-1" y="-1"><feGaussianBlur result="blurOut" stdDeviation="2.0"/><feColorMatrix in="blurOut" result="blurOut2" type="matrix" values="0 0 0 0 0 0 0 0 0 0 0 0 0 0 0 0 0 0 .4 0"/><feOffset dx="4.0" dy="4.0" in="blurOut2" result="blurOut3"/><feBlend in="SourceGraphic" in2="blurOut3" mode="normal"/></filter></defs><g><text fill="#888888" font-family="sans-serif" font-size="10" lengthAdjust="spacingAndGlyphs" textLength="115" x="788" y="9.668">Author: Marco Franssen</text><text fill="#000000" font-family="sans-serif" font-size="18" lengthAdjust="spacingAndGlyphs" textLength="240" x="725.5" y="29.1797">Github at Scale architecture</text><!--MD5=[b10f14ef01883bd0c9dc592c61879151]
cluster SRCPA--><polygon fill="#FFFFFF" filter="url(#feton189k9zvp)" points="22,354.9766,32,344.9766,374,344.9766,374,625.9766,364,635.9766,22,635.9766,22,354.9766" style="stroke: #000000; stroke-width: 1.5;"/><line style="stroke: #000000; stroke-width: 1.5;" x1="364" x2="373" y1="354.9766" y2="345.9766"/><line style="stroke: #000000; stroke-width: 1.5;" x1="22" x2="364" y1="354.9766" y2="354.9766"/><line style="stroke: #000000; stroke-width: 1.5;" x1="364" x2="364" y1="354.9766" y2="635.9766"/><text fill="#000000" font-family="sans-serif" font-size="14" font-weight="bold" lengthAdjust="spacingAndGlyphs" textLength="259" x="64.5" y="371.5117">Selfhosted Runner Cluster Project A</text><!--MD5=[5e658be794c0e70d481866c01cde3727]
cluster SRCPB--><polygon fill="#FFFFFF" filter="url(#feton189k9zvp)" points="919,66.9766,929,56.9766,1253,56.9766,1253,277.4766,1243,287.4766,919,287.4766,919,66.9766" style="stroke: #000000; stroke-width: 1.5;"/><line style="stroke: #000000; stroke-width: 1.5;" x1="1243" x2="1252" y1="66.9766" y2="57.9766"/><line style="stroke: #000000; stroke-width: 1.5;" x1="919" x2="1243" y1="66.9766" y2="66.9766"/><line style="stroke: #000000; stroke-width: 1.5;" x1="1243" x2="1243" y1="66.9766" y2="287.4766"/><text fill="#000000" font-family="sans-serif" font-size="14" font-weight="bold" lengthAdjust="spacingAndGlyphs" textLength="258" x="953" y="83.5117">Selfhosted Runner Cluster Project B</text><!--MD5=[7905d0239cf9a73761ec0d4c7af46d63]
cluster SRCPC--><polygon fill="#FFFFFF" filter="url(#feton189k9zvp)" points="1322,354.9766,1332,344.9766,1657,344.9766,1657,625.9766,1647,635.9766,1322,635.9766,1322,354.9766" style="stroke: #000000; stroke-width: 1.5;"/><line style="stroke: #000000; stroke-width: 1.5;" x1="1647" x2="1656" y1="354.9766" y2="345.9766"/><line style="stroke: #000000; stroke-width: 1.5;" x1="1322" x2="1647" y1="354.9766" y2="354.9766"/><line style="stroke: #000000; stroke-width: 1.5;" x1="1647" x2="1647" y1="354.9766" y2="635.9766"/><text fill="#000000" font-family="sans-serif" font-size="14" font-weight="bold" lengthAdjust="spacingAndGlyphs" textLength="259" x="1356" y="371.5117">Selfhosted Runner Cluster Project C</text><!--MD5=[f4437adb12fe024449d645075e46029a]
cluster Philips Single Sign On--><polygon fill="#FFFFFF" filter="url(#feton189k9zvp)" points="90,75.4766,100,65.4766,327,65.4766,327,147.4766,317,157.4766,90,157.4766,90,75.4766" style="stroke: #000000; stroke-width: 1.5;"/><line style="stroke: #000000; stroke-width: 1.5;" x1="317" x2="326" y1="75.4766" y2="66.4766"/><line style="stroke: #000000; stroke-width: 1.5;" x1="90" x2="317" y1="75.4766" y2="75.4766"/><line style="stroke: #000000; stroke-width: 1.5;" x1="317" x2="317" y1="75.4766" y2="157.4766"/><text fill="#000000" font-family="sans-serif" font-size="14" font-weight="bold" lengthAdjust="spacingAndGlyphs" textLength="161" x="124" y="92.0117">Philips Single Sign On</text><!--MD5=[bbc04e0e6e74780a3def3b837d861956]
cluster POP--><polygon fill="#FFFFFF" filter="url(#feton189k9zvp)" points="351,75.4766,361,65.4766,850,65.4766,850,285.9766,840,295.9766,351,295.9766,351,75.4766" style="stroke: #000000; stroke-width: 1.5;"/><line style="stroke: #000000; stroke-width: 1.5;" x1="840" x2="849" y1="75.4766" y2="66.4766"/><line style="stroke: #000000; stroke-width: 1.5;" x1="351" x2="840" y1="75.4766" y2="75.4766"/><line style="stroke: #000000; stroke-width: 1.5;" x1="840" x2="840" y1="75.4766" y2="295.9766"/><text fill="#000000" font-family="sans-serif" font-size="14" font-weight="bold" lengthAdjust="spacingAndGlyphs" textLength="151" x="521" y="92.0117">Philips OSS Platform</text><!--MD5=[e93374ca1e758015827dc4875cacd9cf]
cluster GH--><polygon fill="#FFFFFF" filter="url(#feton189k9zvp)" points="420,510.9766,430,500.9766,1298,500.9766,1298,965.9766,1288,975.9766,420,975.9766,420,510.9766" style="stroke: #000000; stroke-width: 1.5;"/><line style="stroke: #000000; stroke-width: 1.5;" x1="1288" x2="1297" y1="510.9766" y2="501.9766"/><line style="stroke: #000000; stroke-width: 1.5;" x1="420" x2="1288" y1="510.9766" y2="510.9766"/><line style="stroke: #000000; stroke-width: 1.5;" x1="1288" x2="1288" y1="510.9766" y2="975.9766"/><text fill="#000000" font-family="sans-serif" font-size="14" font-weight="bold" lengthAdjust="spacingAndGlyphs" textLength="48" x="831" y="527.5117">Github</text><!--MD5=[606230bc783815b646294f3852cd8fc9]
cluster RPL--><polygon fill="#FFFFFF" filter="url(#feton189k9zvp)" points="943,548.9766,1038,548.9766,1045,571.4648,1274,571.4648,1274,734.9766,943,734.9766,943,548.9766" style="stroke: #000000; stroke-width: 1.5;"/><line style="stroke: #000000; stroke-width: 1.5;" x1="943" x2="1045" y1="571.4648" y2="571.4648"/><text fill="#000000" font-family="sans-serif" font-size="14" font-weight="bold" lengthAdjust="spacingAndGlyphs" textLength="89" x="947" y="564.5117">philips-labs</text><!--MD5=[b228d61d325023df127f46c6dc9c064b]
cluster RPI--><polygon fill="#FFFFFF" filter="url(#feton189k9zvp)" points="614,548.9766,735,548.9766,742,571.4648,919,571.4648,919,734.9766,614,734.9766,614,548.9766" style="stroke: #000000; stroke-width: 1.5;"/><line style="stroke: #000000; stroke-width: 1.5;" x1="614" x2="742" y1="571.4648" y2="571.4648"/><text fill="#000000" font-family="sans-serif" font-size="14" font-weight="bold" lengthAdjust="spacingAndGlyphs" textLength="115" x="618" y="564.5117">philips-internal</text><!--MD5=[f26fb3887a5d8a0b177a95a8efbd1254]
cluster RPS--><polygon fill="#FFFFFF" filter="url(#feton189k9zvp)" points="903,767.9766,1031,767.9766,1038,790.4648,1274,790.4648,1274,951.9766,903,951.9766,903,767.9766" style="stroke: #000000; stroke-width: 1.5;"/><line style="stroke: #000000; stroke-width: 1.5;" x1="903" x2="1038" y1="790.4648" y2="790.4648"/><text fill="#000000" font-family="sans-serif" font-size="14" font-weight="bold" lengthAdjust="spacingAndGlyphs" textLength="122" x="907" y="783.5117">philips-software</text><!--MD5=[fe108dee4220afea77b9bc2bc43e377a]
entity agent 1--><rect fill="#ADD8E6" filter="url(#feton189k9zvp)" height="52.9766" style="stroke: #0000FF; stroke-width: 1.5;" width="72" x="254" y="384.9766"/><rect fill="#ADD8E6" height="5" style="stroke: #0000FF; stroke-width: 1.5;" width="10" x="249" y="389.9766"/><rect fill="#ADD8E6" height="5" style="stroke: #0000FF; stroke-width: 1.5;" width="10" x="249" y="427.9531"/><text fill="#000000" font-family="sans-serif" font-size="14" font-style="italic" lengthAdjust="spacingAndGlyphs" textLength="46" x="267" y="408.5117">«garo»</text><text fill="#000000" font-family="sans-serif" font-size="14" lengthAdjust="spacingAndGlyphs" textLength="52" x="264" y="425">agent 1</text><!--MD5=[8c9ddaea4e0f3bf42942b7d91fb26399]
entity Runner A--><rect fill="#D3D3D3" filter="url(#feton189k9zvp)" height="36.4883" style="stroke: #000000; stroke-width: 1.5;" width="84" x="157" y="583.9766"/><rect fill="#D3D3D3" height="5" style="stroke: #000000; stroke-width: 1.5;" width="10" x="152" y="588.9766"/><rect fill="#D3D3D3" height="5" style="stroke: #000000; stroke-width: 1.5;" width="10" x="152" y="610.4648"/><text fill="#000000" font-family="sans-serif" font-size="14" lengthAdjust="spacingAndGlyphs" textLength="64" x="167" y="607.5117">Runner A</text><!--MD5=[e76998e5a163c2ef7a5b14e79a46a998]
entity Runner B--><rect fill="#D3D3D3" filter="url(#feton189k9zvp)" height="36.4883" style="stroke: #000000; stroke-width: 1.5;" width="82" x="276" y="583.9766"/><rect fill="#D3D3D3" height="5" style="stroke: #000000; stroke-width: 1.5;" width="10" x="271" y="588.9766"/><rect fill="#D3D3D3" height="5" style="stroke: #000000; stroke-width: 1.5;" width="10" x="271" y="610.4648"/><text fill="#000000" font-family="sans-serif" font-size="14" lengthAdjust="spacingAndGlyphs" textLength="62" x="286" y="607.5117">Runner B</text><!--MD5=[bf767c6a8abfdc37f19912244ab48038]
entity Runner C--><rect fill="#D3D3D3" filter="url(#feton189k9zvp)" height="36.4883" style="stroke: #000000; stroke-width: 1.5;" width="84" x="38" y="583.9766"/><rect fill="#D3D3D3" height="5" style="stroke: #000000; stroke-width: 1.5;" width="10" x="33" y="588.9766"/><rect fill="#D3D3D3" height="5" style="stroke: #000000; stroke-width: 1.5;" width="10" x="33" y="610.4648"/><text fill="#000000" font-family="sans-serif" font-size="14" lengthAdjust="spacingAndGlyphs" textLength="64" x="48" y="607.5117">Runner C</text><!--MD5=[8396e1cfb609ac27629fc0b89ee84731]
entity agent 2--><rect fill="#ADD8E6" filter="url(#feton189k9zvp)" height="52.9766" style="stroke: #0000FF; stroke-width: 1.5;" width="72" x="1032" y="96.9766"/><rect fill="#ADD8E6" height="5" style="stroke: #0000FF; stroke-width: 1.5;" width="10" x="1027" y="101.9766"/><rect fill="#ADD8E6" height="5" style="stroke: #0000FF; stroke-width: 1.5;" width="10" x="1027" y="139.9531"/><text fill="#000000" font-family="sans-serif" font-size="14" font-style="italic" lengthAdjust="spacingAndGlyphs" textLength="46" x="1045" y="120.5117">«garo»</text><text fill="#000000" font-family="sans-serif" font-size="14" lengthAdjust="spacingAndGlyphs" textLength="52" x="1042" y="137">agent 2</text><!--MD5=[92b06c2ca01754223995bc8fd3ac223a]
entity Runner D--><rect fill="#D3D3D3" filter="url(#feton189k9zvp)" height="36.4883" style="stroke: #000000; stroke-width: 1.5;" width="84" x="979" y="235.4766"/><rect fill="#D3D3D3" height="5" style="stroke: #000000; stroke-width: 1.5;" width="10" x="974" y="240.4766"/><rect fill="#D3D3D3" height="5" style="stroke: #000000; stroke-width: 1.5;" width="10" x="974" y="261.9648"/><text fill="#000000" font-family="sans-serif" font-size="14" lengthAdjust="spacingAndGlyphs" textLength="64" x="989" y="259.0117">Runner D</text><!--MD5=[5a70bb6f4dee1d56b23aa92495b8d46a]
entity Runner E--><rect fill="#D3D3D3" filter="url(#feton189k9zvp)" height="36.4883" style="stroke: #000000; stroke-width: 1.5;" width="82" x="1098" y="235.4766"/><rect fill="#D3D3D3" height="5" style="stroke: #000000; stroke-width: 1.5;" width="10" x="1093" y="240.4766"/><rect fill="#D3D3D3" height="5" style="stroke: #000000; stroke-width: 1.5;" width="10" x="1093" y="261.9648"/><text fill="#000000" font-family="sans-serif" font-size="14" lengthAdjust="spacingAndGlyphs" textLength="62" x="1108" y="259.0117">Runner E</text><!--MD5=[5ec23bf21dc1b31b60fc517bf594739c]
entity agent 3--><rect fill="#ADD8E6" filter="url(#feton189k9zvp)" height="52.9766" style="stroke: #0000FF; stroke-width: 1.5;" width="72" x="1338" y="384.9766"/><rect fill="#ADD8E6" height="5" style="stroke: #0000FF; stroke-width: 1.5;" width="10" x="1333" y="389.9766"/><rect fill="#ADD8E6" height="5" style="stroke: #0000FF; stroke-width: 1.5;" width="10" x="1333" y="427.9531"/><text fill="#000000" font-family="sans-serif" font-size="14" font-style="italic" lengthAdjust="spacingAndGlyphs" textLength="46" x="1351" y="408.5117">«garo»</text><text fill="#000000" font-family="sans-serif" font-size="14" lengthAdjust="spacingAndGlyphs" textLength="52" x="1348" y="425">agent 3</text><!--MD5=[37ccc36dcfd50d256daf95e26ac40fec]
entity Runner F--><rect fill="#D3D3D3" filter="url(#feton189k9zvp)" height="36.4883" style="stroke: #000000; stroke-width: 1.5;" width="82" x="1338" y="583.9766"/><rect fill="#D3D3D3" height="5" style="stroke: #000000; stroke-width: 1.5;" width="10" x="1333" y="588.9766"/><rect fill="#D3D3D3" height="5" style="stroke: #000000; stroke-width: 1.5;" width="10" x="1333" y="610.4648"/><text fill="#000000" font-family="sans-serif" font-size="14" lengthAdjust="spacingAndGlyphs" textLength="62" x="1348" y="607.5117">Runner F</text><!--MD5=[8af24fe7a9ca0d4b5b44f02bb224a017]
entity OIDC--><rect fill="#D3D3D3" filter="url(#feton189k9zvp)" height="36.4883" style="stroke: #000000; stroke-width: 1.5;" width="132" x="179" y="105.4766"/><rect fill="#D3D3D3" height="5" style="stroke: #000000; stroke-width: 1.5;" width="10" x="174" y="110.4766"/><rect fill="#D3D3D3" height="5" style="stroke: #000000; stroke-width: 1.5;" width="10" x="174" y="131.9648"/><text fill="#000000" font-family="sans-serif" font-size="14" lengthAdjust="spacingAndGlyphs" textLength="112" x="189" y="129.0117">OpenID Connect</text><!--MD5=[2da6ca5f0476ad78b62c556781f305ea]
entity OSP--><rect fill="#D3D3D3" filter="url(#feton189k9zvp)" height="36.4883" style="stroke: #000000; stroke-width: 1.5;" width="152" x="418" y="105.4766"/><rect fill="#D3D3D3" height="5" style="stroke: #000000; stroke-width: 1.5;" width="10" x="413" y="110.4766"/><rect fill="#D3D3D3" height="5" style="stroke: #000000; stroke-width: 1.5;" width="10" x="413" y="131.9648"/><text fill="#000000" font-family="sans-serif" font-size="14" lengthAdjust="spacingAndGlyphs" textLength="132" x="428" y="129.0117">Open Source Portal</text><!--MD5=[16d4cbd29f75b040627867d0490210e1]
entity Repo Analysis--><rect fill="#D3D3D3" filter="url(#feton189k9zvp)" height="36.4883" style="stroke: #000000; stroke-width: 1.5;" width="115" x="367.5" y="235.4766"/><rect fill="#D3D3D3" height="5" style="stroke: #000000; stroke-width: 1.5;" width="10" x="362.5" y="240.4766"/><rect fill="#D3D3D3" height="5" style="stroke: #000000; stroke-width: 1.5;" width="10" x="362.5" y="261.9648"/><text fill="#000000" font-family="sans-serif" font-size="14" lengthAdjust="spacingAndGlyphs" textLength="95" x="377.5" y="259.0117">Repo Analysis</text><!--MD5=[03e116a78aca4822843fb6ad1bc65a19]
entity self-service--><rect fill="#D3D3D3" filter="url(#feton189k9zvp)" height="36.4883" style="stroke: #000000; stroke-width: 1.5;" width="99" x="523.5" y="235.4766"/><rect fill="#D3D3D3" height="5" style="stroke: #000000; stroke-width: 1.5;" width="10" x="518.5" y="240.4766"/><rect fill="#D3D3D3" height="5" style="stroke: #000000; stroke-width: 1.5;" width="10" x="518.5" y="261.9648"/><text fill="#000000" font-family="sans-serif" font-size="14" lengthAdjust="spacingAndGlyphs" textLength="79" x="533.5" y="259.0117">self-service</text><!--MD5=[dd82451e1dd92fe3da01853750f49ff6]
entity server--><rect fill="#ADD8E6" filter="url(#feton189k9zvp)" height="52.9766" style="stroke: #0000FF; stroke-width: 1.5;" width="66" x="726" y="226.9766"/><rect fill="#ADD8E6" height="5" style="stroke: #0000FF; stroke-width: 1.5;" width="10" x="721" y="231.9766"/><rect fill="#ADD8E6" height="5" style="stroke: #0000FF; stroke-width: 1.5;" width="10" x="721" y="269.9531"/><text fill="#000000" font-family="sans-serif" font-size="14" font-style="italic" lengthAdjust="spacingAndGlyphs" textLength="46" x="736" y="250.5117">«garo»</text><text fill="#000000" font-family="sans-serif" font-size="14" lengthAdjust="spacingAndGlyphs" textLength="42" x="738" y="267">server</text><!--MD5=[73e323913385293e6ce0d749d66fbb7f]
entity API v3--><rect fill="#D3D3D3" filter="url(#feton189k9zvp)" height="36.4883" style="stroke: #000000; stroke-width: 1.5;" width="62" x="533" y="583.9766"/><rect fill="#D3D3D3" height="5" style="stroke: #000000; stroke-width: 1.5;" width="10" x="528" y="588.9766"/><rect fill="#D3D3D3" height="5" style="stroke: #000000; stroke-width: 1.5;" width="10" x="528" y="610.4648"/><text fill="#000000" font-family="sans-serif" font-size="14" lengthAdjust="spacingAndGlyphs" textLength="42" x="543" y="607.5117">API v3</text><!--MD5=[96f1acad9b27b20500704fee3fb43020]
entity API v4--><rect fill="#D3D3D3" filter="url(#feton189k9zvp)" height="36.4883" style="stroke: #000000; stroke-width: 1.5;" width="62" x="436" y="583.9766"/><rect fill="#D3D3D3" height="5" style="stroke: #000000; stroke-width: 1.5;" width="10" x="431" y="588.9766"/><rect fill="#D3D3D3" height="5" style="stroke: #000000; stroke-width: 1.5;" width="10" x="431" y="610.4648"/><text fill="#000000" font-family="sans-serif" font-size="14" lengthAdjust="spacingAndGlyphs" textLength="42" x="446" y="607.5117">API v4</text><!--MD5=[1b9b21d94834f6e3fd9dd31c74b73f77]
entity garo--><rect fill="#D3D3D3" filter="url(#feton189k9zvp)" height="36.4883" style="stroke: #000000; stroke-width: 1.5;" width="52" x="992" y="583.9766"/><rect fill="#D3D3D3" height="5" style="stroke: #000000; stroke-width: 1.5;" width="10" x="987" y="588.9766"/><rect fill="#D3D3D3" height="5" style="stroke: #000000; stroke-width: 1.5;" width="10" x="987" y="610.4648"/><text fill="#000000" font-family="sans-serif" font-size="14" lengthAdjust="spacingAndGlyphs" textLength="32" x="1002" y="607.5117">garo</text><!--MD5=[db90be8c812c599e563c8d359950e2be]
entity dct-notary-admin--><rect fill="#D3D3D3" filter="url(#feton189k9zvp)" height="36.4883" style="stroke: #000000; stroke-width: 1.5;" width="144" x="1079" y="583.9766"/><rect fill="#D3D3D3" height="5" style="stroke: #000000; stroke-width: 1.5;" width="10" x="1074" y="588.9766"/><rect fill="#D3D3D3" height="5" style="stroke: #000000; stroke-width: 1.5;" width="10" x="1074" y="610.4648"/><text fill="#000000" font-family="sans-serif" font-size="14" lengthAdjust="spacingAndGlyphs" textLength="124" x="1089" y="607.5117">dct-notary-admin</text><!--MD5=[bd99aa0cdd66997090edbea57f2c81ee]
entity medical-delivery-drone--><rect fill="#D3D3D3" filter="url(#feton189k9zvp)" height="36.4883" style="stroke: #000000; stroke-width: 1.5;" width="183" x="959.5" y="682.9766"/><rect fill="#D3D3D3" height="5" style="stroke: #000000; stroke-width: 1.5;" width="10" x="954.5" y="687.9766"/><rect fill="#D3D3D3" height="5" style="stroke: #000000; stroke-width: 1.5;" width="10" x="954.5" y="709.4648"/><text fill="#000000" font-family="sans-serif" font-size="14" lengthAdjust="spacingAndGlyphs" textLength="163" x="969.5" y="706.5117">medical-delivery-drone</text><!--MD5=[24175f5bad11158e785a7208234bfe37]
entity Repo X...--><rect fill="#D3D3D3" filter="url(#feton189k9zvp)" height="36.4883" style="stroke: #000000; stroke-width: 1.5;" width="80" x="1178" y="682.9766"/><rect fill="#D3D3D3" height="5" style="stroke: #000000; stroke-width: 1.5;" width="10" x="1173" y="687.9766"/><rect fill="#D3D3D3" height="5" style="stroke: #000000; stroke-width: 1.5;" width="10" x="1173" y="709.4648"/><text fill="#000000" font-family="sans-serif" font-size="14" lengthAdjust="spacingAndGlyphs" textLength="60" x="1188" y="706.5117">Repo X...</text><!--MD5=[11fb7b82080a0f443da1aaeca5c9209c]
entity fact-service--><rect fill="#D3D3D3" filter="url(#feton189k9zvp)" height="36.4883" style="stroke: #000000; stroke-width: 1.5;" width="100" x="630" y="583.9766"/><rect fill="#D3D3D3" height="5" style="stroke: #000000; stroke-width: 1.5;" width="10" x="625" y="588.9766"/><rect fill="#D3D3D3" height="5" style="stroke: #000000; stroke-width: 1.5;" width="10" x="625" y="610.4648"/><text fill="#000000" font-family="sans-serif" font-size="14" lengthAdjust="spacingAndGlyphs" textLength="80" x="640" y="607.5117">fact-service</text><!--MD5=[ddb3c246ccf716f11e99394229663e80]
entity hsdp-console-cli--><rect fill="#D3D3D3" filter="url(#feton189k9zvp)" height="36.4883" style="stroke: #000000; stroke-width: 1.5;" width="138" x="765" y="583.9766"/><rect fill="#D3D3D3" height="5" style="stroke: #000000; stroke-width: 1.5;" width="10" x="760" y="588.9766"/><rect fill="#D3D3D3" height="5" style="stroke: #000000; stroke-width: 1.5;" width="10" x="760" y="610.4648"/><text fill="#000000" font-family="sans-serif" font-size="14" lengthAdjust="spacingAndGlyphs" textLength="118" x="775" y="607.5117">hsdp-console-cli</text><!--MD5=[34f306a227e83ea0fd330ca2ba804574]
entity hsdp-vpn-agent--><rect fill="#D3D3D3" filter="url(#feton189k9zvp)" height="36.4883" style="stroke: #000000; stroke-width: 1.5;" width="134" x="630" y="682.9766"/><rect fill="#D3D3D3" height="5" style="stroke: #000000; stroke-width: 1.5;" width="10" x="625" y="687.9766"/><rect fill="#D3D3D3" height="5" style="stroke: #000000; stroke-width: 1.5;" width="10" x="625" y="709.4648"/><text fill="#000000" font-family="sans-serif" font-size="14" lengthAdjust="spacingAndGlyphs" textLength="114" x="640" y="706.5117">hsdp-vpn-agent</text><!--MD5=[6ec32f0371df4d99e44191e4a94d9de6]
entity Repo Y...--><rect fill="#D3D3D3" filter="url(#feton189k9zvp)" height="36.4883" style="stroke: #000000; stroke-width: 1.5;" width="80" x="799" y="682.9766"/><rect fill="#D3D3D3" height="5" style="stroke: #000000; stroke-width: 1.5;" width="10" x="794" y="687.9766"/><rect fill="#D3D3D3" height="5" style="stroke: #000000; stroke-width: 1.5;" width="10" x="794" y="709.4648"/><text fill="#000000" font-family="sans-serif" font-size="14" lengthAdjust="spacingAndGlyphs" textLength="60" x="809" y="706.5117">Repo Y...</text><!--MD5=[1d23507694b364ba0fda45c374ffbb99]
entity terraform-provider-hsdp--><rect fill="#D3D3D3" filter="url(#feton189k9zvp)" height="36.4883" style="stroke: #000000; stroke-width: 1.5;" width="194" x="919" y="802.9766"/><rect fill="#D3D3D3" height="5" style="stroke: #000000; stroke-width: 1.5;" width="10" x="914" y="807.9766"/><rect fill="#D3D3D3" height="5" style="stroke: #000000; stroke-width: 1.5;" width="10" x="914" y="829.4648"/><text fill="#000000" font-family="sans-serif" font-size="14" lengthAdjust="spacingAndGlyphs" textLength="174" x="929" y="826.5117">terraform-provider-hsdp</text><!--MD5=[bc5cf1e589231d96b53debf928ea4aeb]
entity go-hsdp-api--><rect fill="#D3D3D3" filter="url(#feton189k9zvp)" height="36.4883" style="stroke: #000000; stroke-width: 1.5;" width="109" x="1148.5" y="802.9766"/><rect fill="#D3D3D3" height="5" style="stroke: #000000; stroke-width: 1.5;" width="10" x="1143.5" y="807.9766"/><rect fill="#D3D3D3" height="5" style="stroke: #000000; stroke-width: 1.5;" width="10" x="1143.5" y="829.4648"/><text fill="#000000" font-family="sans-serif" font-size="14" lengthAdjust="spacingAndGlyphs" textLength="89" x="1158.5" y="826.5117">go-hsdp-api</text><!--MD5=[678d4938bd7d9f42f96c3a2e15764d97]
entity docker-openjdk--><rect fill="#D3D3D3" filter="url(#feton189k9zvp)" height="36.4883" style="stroke: #000000; stroke-width: 1.5;" width="131" x="950.5" y="899.9766"/><rect fill="#D3D3D3" height="5" style="stroke: #000000; stroke-width: 1.5;" width="10" x="945.5" y="904.9766"/><rect fill="#D3D3D3" height="5" style="stroke: #000000; stroke-width: 1.5;" width="10" x="945.5" y="926.4648"/><text fill="#000000" font-family="sans-serif" font-size="14" lengthAdjust="spacingAndGlyphs" textLength="111" x="960.5" y="923.5117">docker-openjdk</text><!--MD5=[1c6b46b4edf29825a4149a7fa56b259e]
entity Repo Z...--><rect fill="#D3D3D3" filter="url(#feton189k9zvp)" height="36.4883" style="stroke: #000000; stroke-width: 1.5;" width="79" x="1116.5" y="899.9766"/><rect fill="#D3D3D3" height="5" style="stroke: #000000; stroke-width: 1.5;" width="10" x="1111.5" y="904.9766"/><rect fill="#D3D3D3" height="5" style="stroke: #000000; stroke-width: 1.5;" width="10" x="1111.5" y="926.4648"/><text fill="#000000" font-family="sans-serif" font-size="14" lengthAdjust="spacingAndGlyphs" textLength="59" x="1126.5" y="923.5117">Repo Z...</text><!--MD5=[89d9f7de5e8641e8f565059bc1a0ad74]
link agent 1 to Runner A--><path d="M253.8,429.3866 C238.29,438.5566 221.58,451.4366 212,467.9766 C192.05,502.4166 193,550.4366 195.8,578.3566 " fill="none" id="agent 1-&gt;Runner A" style="stroke: #000000; stroke-width: 1.0; stroke-dasharray: 7.0,7.0;"/><polygon fill="#000000" points="196.38,583.6666,199.3794,574.2855,195.8372,578.6961,191.4267,575.1539,196.38,583.6666" style="stroke: #000000; stroke-width: 1.0;"/><text fill="#000000" font-family="sans-serif" font-size="13" lengthAdjust="spacingAndGlyphs" textLength="66" x="213" y="481.5449">provisions</text><!--MD5=[ffc0ca439b2ae625184927fac810130e]
link agent 1 to Runner B--><path d="M289.44,438.1766 C289.26,447.5566 289.09,458.2466 289,467.9766 C288.93,475.5366 288.11,477.4766 289,484.9766 C292.96,518.2566 303.1,555.7966 310.02,578.9266 " fill="none" id="agent 1-&gt;Runner B" style="stroke: #000000; stroke-width: 1.0; stroke-dasharray: 7.0,7.0;"/><polygon fill="#000000" points="311.53,583.9166,312.7351,574.1417,310.0736,579.1334,305.082,576.4719,311.53,583.9166" style="stroke: #000000; stroke-width: 1.0;"/><text fill="#000000" font-family="sans-serif" font-size="13" lengthAdjust="spacingAndGlyphs" textLength="66" x="290" y="481.5449">provisions</text><!--MD5=[375b7af1ed1c2b211f810cc14912f4e1]
link agent 1 to Runner C--><path d="M253.73,415.8666 C217.4,421.1066 162.12,434.4066 128,467.9766 C97.36,498.1266 86.18,549.2566 82.17,578.5566 " fill="none" id="agent 1-&gt;Runner C" style="stroke: #000000; stroke-width: 1.0; stroke-dasharray: 7.0,7.0;"/><polygon fill="#000000" points="81.5,583.7666,86.5973,575.3394,82.1272,578.8061,78.6605,574.3359,81.5,583.7666" style="stroke: #000000; stroke-width: 1.0;"/><text fill="#000000" font-family="sans-serif" font-size="13" lengthAdjust="spacingAndGlyphs" textLength="66" x="129" y="481.5449">provisions</text><!--MD5=[dbf2bf432428a0e1a62f3274c45af5de]
link agent 2 to Runner D--><path d="M1032.98,150.0566 C1024.13,158.4966 1015.78,168.6466 1011,179.9766 C1004.21,196.0666 1007.59,215.7866 1012.19,230.5866 " fill="none" id="agent 2-&gt;Runner D" style="stroke: #000000; stroke-width: 1.0; stroke-dasharray: 7.0,7.0;"/><polygon fill="#000000" points="1013.78,235.4066,1014.773,225.6079,1012.2203,230.656,1007.1722,228.1033,1013.78,235.4066" style="stroke: #000000; stroke-width: 1.0;"/><text fill="#000000" font-family="sans-serif" font-size="13" lengthAdjust="spacingAndGlyphs" textLength="66" x="1012" y="193.5449">provisions</text><!--MD5=[77f00be330f27fd49b8746208122423e]
link agent 2 to Runner E--><path d="M1082.2,150.0766 C1095.27,173.6366 1114.46,208.2266 1126.84,230.5566 " fill="none" id="agent 2-&gt;Runner E" style="stroke: #000000; stroke-width: 1.0; stroke-dasharray: 7.0,7.0;"/><polygon fill="#000000" points="1129.37,235.1266,1128.5204,225.3144,1126.9527,230.7497,1121.5174,229.1821,1129.37,235.1266" style="stroke: #000000; stroke-width: 1.0;"/><text fill="#000000" font-family="sans-serif" font-size="13" lengthAdjust="spacingAndGlyphs" textLength="66" x="1108" y="193.5449">provisions</text><!--MD5=[fb8bd9da6c4886888ed95b81605c8355]
link agent 3 to Runner F--><path d="M1374.68,438.2866 C1375.67,475.4266 1377.47,543.3166 1378.4,578.4966 " fill="none" id="agent 3-&gt;Runner F" style="stroke: #000000; stroke-width: 1.0; stroke-dasharray: 7.0,7.0;"/><polygon fill="#000000" points="1378.55,583.8566,1382.2913,574.746,1378.4072,578.8586,1374.2946,574.9745,1378.55,583.8566" style="stroke: #000000; stroke-width: 1.0;"/><text fill="#000000" font-family="sans-serif" font-size="13" lengthAdjust="spacingAndGlyphs" textLength="66" x="1376" y="481.5449">provisions</text><!--MD5=[2671fdb7442f3e45056516890f9e6e2f]
link OSP to Repo Analysis--><path d="M443.76,141.7166 C426.42,150.3566 408.89,162.7466 399,179.9766 C389.77,196.0566 398.17,215.9866 407.8,230.8766 " fill="none" id="OSP-&gt;Repo Analysis" style="stroke: #000000; stroke-width: 1.0; stroke-dasharray: 7.0,7.0;"/><polygon fill="#000000" points="410.81,235.3266,409.0844,225.6301,408.0102,231.184,402.4563,230.1098,410.81,235.3266" style="stroke: #000000; stroke-width: 1.0;"/><text fill="#000000" font-family="sans-serif" font-size="13" lengthAdjust="spacingAndGlyphs" textLength="67" x="400" y="193.5449">fetch stats</text><!--MD5=[b7a1aaccd783f69e1f8b46b242320609]
link OSP to self-service--><path d="M494.16,141.7066 C495.02,157.1466 498.06,179.9166 508,196.9766 C516.12,210.9166 529.06,223.0266 541.27,232.3466 " fill="none" id="OSP-&gt;self-service" style="stroke: #000000; stroke-width: 1.0; stroke-dasharray: 7.0,7.0;"/><polygon fill="#000000" points="545.38,235.3966,540.5457,226.8158,541.368,232.4126,535.7713,233.235,545.38,235.3966" style="stroke: #000000; stroke-width: 1.0;"/><text fill="#000000" font-family="sans-serif" font-size="13" lengthAdjust="spacingAndGlyphs" textLength="106" x="509" y="193.5449">repo creation etc</text><!--MD5=[ccaf1e99de505c804b6befa0f280f97f]
reverse link OIDC to OSP--><path d="M316.13,123.4766 C347.96,123.4766 385.52,123.4766 417.91,123.4766 " fill="none" id="OIDC&lt;-OSP" style="stroke: #000000; stroke-width: 1.0; stroke-dasharray: 7.0,7.0;"/><polygon fill="#000000" points="311.07,123.4766,320.07,127.4766,316.07,123.4766,320.07,119.4766,311.07,123.4766" style="stroke: #000000; stroke-width: 1.0;"/><text fill="#000000" font-family="sans-serif" font-size="13" lengthAdjust="spacingAndGlyphs" textLength="54" x="337.5" y="117.0449">login via</text><!--MD5=[40e1cb0a3c0e81f4f2be171405a0ceb6]
link OSP to server--><path d="M534.6,141.5566 C559.44,152.2066 591.77,166.4166 620,179.9766 C654.67,196.6366 693.42,216.9966 721.18,231.8966 " fill="none" id="OSP-&gt;server" style="stroke: #000000; stroke-width: 1.0; stroke-dasharray: 7.0,7.0;"/><polygon fill="#000000" points="725.89,234.4266,719.8456,226.6506,721.4826,232.0655,716.0678,233.7025,725.89,234.4266" style="stroke: #000000; stroke-width: 1.0;"/><text fill="#000000" font-family="sans-serif" font-size="13" lengthAdjust="spacingAndGlyphs" textLength="173" x="651" y="193.5449">configure runners for repos</text><!--MD5=[2822703fb9feb39f1512ca3b4f4dffd7]
reverse link server to agent 1--><path d="M721.2,273.2566 C698.25,283.8766 668.06,296.4966 640,303.9766 C528.31,333.7766 488.45,291.8866 382,336.9766 C356.21,347.8966 331.68,368.1866 314.44,384.6766 " fill="none" id="server&lt;-agent 1" style="stroke: #000000; stroke-width: 1.0; stroke-dasharray: 7.0,7.0;"/><polygon fill="#000000" points="725.98,271.0166,716.1328,271.1995,721.4494,273.1318,719.5172,278.4484,725.98,271.0166" style="stroke: #000000; stroke-width: 1.0;"/><text fill="#000000" font-family="sans-serif" font-size="13" lengthAdjust="spacingAndGlyphs" textLength="98" x="597" y="325.5449">retrieves config</text><!--MD5=[e717165a7fd3912f69c087115cbeafce]
link agent 1 to API v3--><path d="M326.33,423.6866 C386.49,442.4966 501.64,479.6666 516,492.9766 C541.01,516.1566 553.78,554.7466 559.66,578.9766 " fill="none" id="agent 1-&gt;API v3" style="stroke: #000000; stroke-width: 1.0; stroke-dasharray: 7.0,7.0;"/><polygon fill="#000000" points="560.81,583.9266,562.6755,574.256,559.6815,579.0556,554.882,576.0616,560.81,583.9266" style="stroke: #000000; stroke-width: 1.0;"/><!--MD5=[a9fb87e2e2b697203de8bb4be98d1d29]
link agent 2 to server--><path d="M1031.78,134.5366 C997.14,144.5866 943.7,161.2066 899,179.9766 C863.45,194.9066 824.64,215.3566 796.92,230.7266 " fill="none" id="agent 2-&gt;server" style="stroke: #000000; stroke-width: 1.0; stroke-dasharray: 7.0,7.0;"/><polygon fill="#000000" points="792.22,233.3466,802.0288,232.4588,796.5874,230.9123,798.1339,225.4709,792.22,233.3466" style="stroke: #000000; stroke-width: 1.0;"/><text fill="#000000" font-family="sans-serif" font-size="13" lengthAdjust="spacingAndGlyphs" textLength="98" x="900" y="193.5449">retrieves config</text><!--MD5=[c1a0dd554d6e81ca21ef12140a748faa]
link agent 2 to API v3--><path d="M1104.09,133.6366 C1129.47,141.8366 1162.43,156.2866 1183,179.9766 C1219.4,221.8966 1225.44,255.7166 1198,303.9766 C1187.26,322.8566 1175.84,320.1366 1156,328.9766 C942.58,424.0566 880.41,427.3266 654,484.9766 C636.43,489.4466 628.24,481.7566 614,492.9766 C586.88,514.3466 573.86,553.8366 568.09,578.6866 " fill="none" id="agent 2-&gt;API v3" style="stroke: #000000; stroke-width: 1.0; stroke-dasharray: 7.0,7.0;"/><polygon fill="#000000" points="566.96,583.7566,572.8171,575.8386,568.0447,578.8756,565.0076,574.1032,566.96,583.7566" style="stroke: #000000; stroke-width: 1.0;"/><!--MD5=[150aa3b23713c59543895d03d60a0605]
reverse link server to agent 3--><path d="M797.19,264.1666 C908.1,292.2966 1229.24,373.7566 1337.71,401.2766 " fill="none" id="server&lt;-agent 3" style="stroke: #000000; stroke-width: 1.0; stroke-dasharray: 7.0,7.0;"/><polygon fill="#000000" points="792.07,262.8666,799.8101,268.9568,796.9165,264.0961,801.7773,261.2025,792.07,262.8666" style="stroke: #000000; stroke-width: 1.0;"/><text fill="#000000" font-family="sans-serif" font-size="13" lengthAdjust="spacingAndGlyphs" textLength="98" x="1049" y="325.5449">retrieves config</text><!--MD5=[a96baa6e7867231a496f8b63bfd06247]
link agent 3 to API v3--><path d="M1343.61,438.2366 C1321.66,455.0966 1290.46,475.6766 1259,484.9766 C1241.82,490.0566 629.04,483.2366 614,492.9766 C584.7,511.9566 572.29,552.9366 567.25,578.6066 " fill="none" id="agent 3-&gt;API v3" style="stroke: #000000; stroke-width: 1.0; stroke-dasharray: 7.0,7.0;"/><polygon fill="#000000" points="566.28,583.8366,571.8587,575.72,567.1945,578.9209,563.9937,574.2568,566.28,583.8366" style="stroke: #000000; stroke-width: 1.0;"/><!--MD5=[c374a679dac059387d3305036f0cb3a6]
link server to API v3--><path d="M749.27,280.2166 C734.69,317.0566 704.9,386.1066 668,437.9766 C648.14,465.8866 633.48,464.7966 614,492.9766 C594.99,520.4666 580.04,556.3366 571.61,579.0266 " fill="none" id="server-&gt;API v3" style="stroke: #000000; stroke-width: 1.0; stroke-dasharray: 7.0,7.0;"/><polygon fill="#000000" points="569.81,583.9366,576.6777,576.8772,571.5405,579.2456,569.1721,574.1084,569.81,583.9366" style="stroke: #000000; stroke-width: 1.0;"/><!--MD5=[fdb097b4b64b2710a2acbe734067fdc3]
link self-service to API v3--><path d="M572.55,271.6566 C571.06,329.0366 566.26,514.0366 564.58,578.5366 " fill="none" id="self-service-&gt;API v3" style="stroke: #000000; stroke-width: 1.0; stroke-dasharray: 7.0,7.0;"/><polygon fill="#000000" points="564.45,583.6866,568.68,574.7924,564.5785,578.6882,560.6827,574.5867,564.45,583.6866" style="stroke: #000000; stroke-width: 1.0;"/><text fill="#000000" font-family="sans-serif" font-size="13" lengthAdjust="spacingAndGlyphs" textLength="88" x="571" y="416.5449">manage repos</text><!--MD5=[0d12558b1b8a37c89b91c1f0f9efb168]
link Repo Analysis to API v4--><path d="M427.08,271.6566 C434.04,329.0366 456.46,514.0366 464.28,578.5366 " fill="none" id="Repo Analysis-&gt;API v4" style="stroke: #000000; stroke-width: 1.0; stroke-dasharray: 7.0,7.0;"/><polygon fill="#000000" points="464.9,583.6866,467.7896,574.2711,464.2992,578.7228,459.8475,575.2324,464.9,583.6866" style="stroke: #000000; stroke-width: 1.0;"/><text fill="#000000" font-family="sans-serif" font-size="13" lengthAdjust="spacingAndGlyphs" textLength="81" x="447" y="416.5449">various stats</text><!--MD5=[fd99cc76b93ef7040c208ccc5ba644cf]
link garo to dct-notary-admin--><!--MD5=[264cfe088232e60e84338f2bb48659f8]
link garo to medical-delivery-drone--><!--MD5=[7b76eb269dd29e198994f84a500af72a]
link medical-delivery-drone to Repo X...--><!--MD5=[32d4b125af81cc99396723c4daf4222a]
link fact-service to hsdp-console-cli--><!--MD5=[49d1bba979332baac9492c63d42bcbf9]
link fact-service to hsdp-vpn-agent--><!--MD5=[5eab18ba2dc8782fa92db31b5ad53354]
link hsdp-vpn-agent to Repo Y...--><!--MD5=[36bdab3574893bd305b1f5ad18f4f876]
link terraform-provider-hsdp to go-hsdp-api--><!--MD5=[1f0b0fb6180f1477d2fabd5bd9481363]
link terraform-provider-hsdp to docker-openjdk--><!--MD5=[71af50149ef38e3869704bfaa1ee8ea5]
link docker-openjdk to Repo Z...--><!--MD5=[ce102f328b16d1e702cc63a0a0bb4d95]
link dct-notary-admin to fact-service--><!--MD5=[e46bc4f7ef9ad5be37e0a4924dc23afc]
link medical-delivery-drone to terraform-provider-hsdp--><text fill="#888888" font-family="sans-serif" font-size="10" lengthAdjust="spacingAndGlyphs" textLength="115" x="788" y="1011.6445">Author: Marco Franssen</text><!--MD5=[c350a4c754bf45ffbf2e4777ebebab7a]
@startuml


title Github at Scale architecture
center header Author: Marco Franssen
center footer Author: Marco Franssen

skinparam handwritten false

skinparam sequence {
	ArrowColor black
	ActorBorderColor DeepSkyBlue
	LifeLineBorderColor black
	LifeLineBackgroundColor grey
}

skinparam actor {
  BackgroundColor lightgrey
  BorderColor black
}

skinparam component {
  BackgroundColor lightgrey
  BorderColor black
}

skinparam component<<garo>> {
  BackgroundColor lightblue
  BorderColor blue
}

node "Selfhosted Runner Cluster Project A" as SRCPA {
    [agent 1] <<garo>>
    [agent 1] ..> [Runner A] : provisions
    [agent 1] ..> [Runner B] : provisions
    [agent 1] ..> [Runner C] : provisions
}

node "Selfhosted Runner Cluster Project B" as SRCPB {
    [agent 2] <<garo>>
    [agent 2] ..> [Runner D] : provisions
    [agent 2] ..> [Runner E] : provisions
}

node "Selfhosted Runner Cluster Project C" as SRCPC {
    [agent 3] <<garo>>
    [agent 3] ..> [Runner F] : provisions
}

node "Philips Single Sign On" {
    [OpenID Connect] as OIDC
}

node "Philips OSS Platform" as POP {
    [Open Source Portal] as OSP
    [OSP] ..> [Repo Analysis] : fetch stats
    [OSP] ..> [self-service] : repo creation etc
    [OSP] .left.> OIDC : login via
    [server] <<garo>>
    [OSP] ..> [server] : configure runners for repos
}

node "Github" as GH {
    [API v3]
    [API v4]
    package "philips-labs" as RPL{
        [garo]
        [dct-notary-admin]
        [medical-delivery-drone]
        [Repo X...]
    }
    package "philips-internal" as RPI {
        [fact-service]
        [hsdp-console-cli]
        [hsdp-vpn-agent]
        [Repo Y...]
    }
    package "philips-software" as RPS {
        [terraform-provider-hsdp]
        [go-hsdp-api]
        [docker-openjdk]
        [Repo Z...]
    }
}

[agent 1] .up.> [server] : retrieves config
[agent 1] ..> [API v3]
[agent 2] .down.> [server] : retrieves config
[agent 2] ..> [API v3]
[agent 3] .up.> [server] : retrieves config
[agent 3] ..> [API v3]
[server] ..> [API v3]
[self-service] ..> [API v3] : manage repos
[Repo Analysis] ..> [API v4] : various stats

@enduml

PlantUML version 1.2020.01(Sun Feb 16 18:40:32 CET 2020)
(GPL source distribution)
Java Runtime: OpenJDK Runtime Environment
JVM: OpenJDK 64-Bit Server VM
Java Version: 11.0.5+10-LTS
Operating System: Mac OS X
Default Encoding: UTF-8
Language: en
Country: NL
--></g></svg>